<svg width="482" height="139" viewBox="0 0 482 139" fill="none" xmlns="http://www.w3.org/2000/svg">
<rect x="0.5" y="0.5" width="481" height="138" rx="29.5" fill="#0A090A" fill-opacity="0.6" stroke="#363636"/>
<path d="M325.4 89.216C323.9 89.216 322.802 88.646 322.106 87.506C321.422 86.366 321.08 84.77 321.08 82.718C321.08 80.666 321.422 79.07 322.106 77.93C322.802 76.79 323.9 76.22 325.4 76.22C326.9 76.22 327.992 76.79 328.676 77.93C329.372 79.07 329.72 80.666 329.72 82.718C329.72 84.77 329.372 86.366 328.676 87.506C327.992 88.646 326.9 89.216 325.4 89.216ZM325.4 87.902C326.06 87.902 326.588 87.728 326.984 87.38C327.38 87.02 327.668 86.528 327.848 85.904C328.04 85.268 328.136 84.548 328.136 83.744V81.692C328.136 80.876 328.04 80.156 327.848 79.532C327.668 78.908 327.38 78.422 326.984 78.074C326.588 77.714 326.06 77.534 325.4 77.534C324.752 77.534 324.224 77.714 323.816 78.074C323.42 78.422 323.126 78.908 322.934 79.532C322.754 80.156 322.664 80.876 322.664 81.692V83.744C322.664 84.548 322.754 85.268 322.934 85.904C323.126 86.528 323.42 87.02 323.816 87.38C324.224 87.728 324.752 87.902 325.4 87.902ZM336.077 89V79.712H337.517V81.224H337.589C337.793 80.744 338.081 80.336 338.453 80C338.825 79.664 339.371 79.496 340.091 79.496C340.703 79.496 341.267 79.646 341.783 79.946C342.299 80.234 342.683 80.714 342.935 81.386H342.971C343.139 80.882 343.451 80.444 343.907 80.072C344.375 79.688 345.005 79.496 345.797 79.496C346.745 79.496 347.483 79.808 348.011 80.432C348.551 81.044 348.821 81.914 348.821 83.042V89H347.381V83.294C347.381 82.478 347.219 81.86 346.895 81.44C346.571 81.008 346.055 80.792 345.347 80.792C344.975 80.792 344.621 80.858 344.285 80.99C343.949 81.11 343.679 81.302 343.475 81.566C343.271 81.83 343.169 82.16 343.169 82.556V89H341.729V83.294C341.729 82.466 341.567 81.842 341.243 81.422C340.919 81.002 340.415 80.792 339.731 80.792C339.359 80.792 338.999 80.858 338.651 80.99C338.315 81.11 338.039 81.302 337.823 81.566C337.619 81.83 337.517 82.16 337.517 82.556V89H336.077ZM355.034 89.216C354.194 89.216 353.462 89.018 352.838 88.622C352.214 88.214 351.728 87.65 351.38 86.93C351.032 86.198 350.858 85.34 350.858 84.356C350.858 83.372 351.032 82.52 351.38 81.8C351.728 81.068 352.214 80.504 352.838 80.108C353.462 79.7 354.194 79.496 355.034 79.496C355.862 79.496 356.576 79.694 357.176 80.09C357.776 80.474 358.238 81.008 358.562 81.692C358.886 82.376 359.048 83.156 359.048 84.032V84.716H352.37V85.148C352.37 85.952 352.61 86.624 353.09 87.164C353.582 87.692 354.26 87.956 355.124 87.956C355.712 87.956 356.222 87.818 356.654 87.542C357.098 87.266 357.44 86.87 357.68 86.354L358.706 87.092C358.406 87.716 357.938 88.226 357.302 88.622C356.666 89.018 355.91 89.216 355.034 89.216ZM352.37 83.636H357.5V83.438C357.5 82.886 357.398 82.406 357.194 81.998C356.99 81.59 356.702 81.272 356.33 81.044C355.958 80.816 355.526 80.702 355.034 80.702C354.518 80.702 354.056 80.822 353.648 81.062C353.252 81.302 352.94 81.638 352.712 82.07C352.484 82.49 352.37 82.97 352.37 83.51V83.636ZM363.223 89C362.731 89 362.353 88.856 362.089 88.568C361.825 88.28 361.693 87.914 361.693 87.47V80.972H360.163V79.712H361.027C361.339 79.712 361.549 79.652 361.657 79.532C361.777 79.4 361.837 79.178 361.837 78.866V77.138H363.133V79.712H365.167V80.972H363.133V87.74H365.023V89H363.223ZM370.653 89.216C369.813 89.216 369.081 89.018 368.457 88.622C367.833 88.214 367.347 87.65 366.999 86.93C366.651 86.198 366.477 85.34 366.477 84.356C366.477 83.372 366.651 82.52 366.999 81.8C367.347 81.068 367.833 80.504 368.457 80.108C369.081 79.7 369.813 79.496 370.653 79.496C371.481 79.496 372.195 79.694 372.795 80.09C373.395 80.474 373.857 81.008 374.181 81.692C374.505 82.376 374.667 83.156 374.667 84.032V84.716H367.989V85.148C367.989 85.952 368.229 86.624 368.709 87.164C369.201 87.692 369.879 87.956 370.743 87.956C371.331 87.956 371.841 87.818 372.273 87.542C372.717 87.266 373.059 86.87 373.299 86.354L374.325 87.092C374.025 87.716 373.557 88.226 372.921 88.622C372.285 89.018 371.529 89.216 370.653 89.216ZM367.989 83.636H373.119V83.438C373.119 82.886 373.017 82.406 372.813 81.998C372.609 81.59 372.321 81.272 371.949 81.044C371.577 80.816 371.145 80.702 370.653 80.702C370.137 80.702 369.675 80.822 369.267 81.062C368.871 81.302 368.559 81.638 368.331 82.07C368.103 82.49 367.989 82.97 367.989 83.51V83.636ZM376.79 89V79.712H378.23V81.422H378.32C378.428 81.122 378.596 80.846 378.824 80.594C379.052 80.33 379.346 80.12 379.706 79.964C380.066 79.796 380.498 79.712 381.002 79.712H381.56V81.152H380.714C380.198 81.152 379.754 81.224 379.382 81.368C379.01 81.5 378.722 81.68 378.518 81.908C378.326 82.136 378.23 82.4 378.23 82.7V89H376.79ZM385.939 89.216C385.087 89.216 384.367 89.054 383.779 88.73C383.191 88.394 382.687 87.95 382.267 87.398L383.293 86.57C383.653 87.014 384.055 87.362 384.499 87.614C384.943 87.866 385.459 87.992 386.047 87.992C386.659 87.992 387.133 87.86 387.469 87.596C387.817 87.332 387.991 86.96 387.991 86.48C387.991 86.12 387.871 85.808 387.631 85.544C387.403 85.28 386.983 85.106 386.371 85.022L385.633 84.914C385.069 84.83 384.559 84.692 384.103 84.5C383.647 84.296 383.287 84.014 383.023 83.654C382.771 83.282 382.645 82.808 382.645 82.232C382.645 81.308 382.957 80.624 383.581 80.18C384.217 79.724 385.009 79.496 385.957 79.496C386.461 79.496 386.905 79.556 387.289 79.676C387.685 79.796 388.039 79.97 388.351 80.198C388.663 80.414 388.945 80.678 389.197 80.99L388.243 81.854C388.039 81.566 387.739 81.308 387.343 81.08C386.947 80.84 386.449 80.72 385.849 80.72C385.261 80.72 384.811 80.852 384.499 81.116C384.187 81.368 384.031 81.716 384.031 82.16C384.031 82.604 384.181 82.934 384.481 83.15C384.793 83.354 385.237 83.504 385.813 83.6L386.533 83.708C387.565 83.864 388.297 84.164 388.729 84.608C389.161 85.04 389.377 85.61 389.377 86.318C389.377 86.918 389.239 87.434 388.963 87.866C388.687 88.298 388.291 88.634 387.775 88.874C387.259 89.102 386.647 89.216 385.939 89.216Z" fill="#F1F1F1"/>
<path d="M321.781 64C321.586 64 321.438 63.9492 321.336 63.8477C321.234 63.7383 321.184 63.6211 321.184 63.4961C321.184 63.3711 321.23 63.2578 321.324 63.1562C321.426 63.0469 321.574 62.9922 321.77 62.9922H323.68V51.2852H321.816C321.629 51.2852 321.488 51.2344 321.395 51.1328C321.301 51.0312 321.254 50.918 321.254 50.793C321.254 50.6602 321.301 50.543 321.395 50.4414C321.496 50.332 321.645 50.2773 321.84 50.2773H326.035C327.379 50.2773 328.547 50.5195 329.539 51.0039C330.539 51.4805 331.316 52.2188 331.871 53.2188C332.426 54.2188 332.703 55.5039 332.703 57.0742C332.703 59.5508 332.117 61.3242 330.945 62.3945C329.773 63.4648 328.129 64 326.012 64H321.781ZM324.805 62.9922H326.094C328.031 62.9922 329.43 62.4961 330.289 61.5039C331.148 60.5117 331.578 59.0352 331.578 57.0742C331.578 55.2227 331.121 53.7969 330.207 52.7969C329.293 51.7891 327.977 51.2852 326.258 51.2852H324.805V62.9922ZM337.914 64C337.719 64 337.57 63.9492 337.469 63.8477C337.367 63.7383 337.316 63.6211 337.316 63.4961C337.316 63.3711 337.363 63.2578 337.457 63.1562C337.559 63.0469 337.707 62.9922 337.902 62.9922H341.477V51.2852H337.902C337.707 51.2852 337.559 51.2344 337.457 51.1328C337.363 51.0312 337.316 50.918 337.316 50.793C337.316 50.6602 337.367 50.543 337.469 50.4414C337.57 50.332 337.719 50.2773 337.914 50.2773H345.941C346.137 50.2773 346.281 50.332 346.375 50.4414C346.477 50.543 346.527 50.6602 346.527 50.793C346.527 50.918 346.48 51.0312 346.387 51.1328C346.293 51.2344 346.148 51.2852 345.953 51.2852H342.602V62.9922H345.953C346.148 62.9922 346.293 63.0469 346.387 63.1562C346.48 63.2578 346.527 63.3711 346.527 63.4961C346.527 63.6211 346.477 63.7383 346.375 63.8477C346.281 63.9492 346.137 64 345.941 64H337.914ZM352.266 64.1992C352.07 64.1992 351.926 64.1367 351.832 64.0117C351.746 63.8945 351.703 63.668 351.703 63.332V59.6523C351.703 59.4648 351.754 59.3281 351.855 59.2422C351.957 59.1484 352.078 59.1016 352.219 59.1016C352.359 59.1016 352.484 59.1484 352.594 59.2422C352.703 59.3359 352.758 59.4805 352.758 59.6758V61.0703C352.758 61.4062 352.949 61.7383 353.332 62.0664C353.715 62.3867 354.203 62.6562 354.797 62.875C355.398 63.0859 356.023 63.1914 356.672 63.1914C357.531 63.1914 358.27 62.9844 358.887 62.5703C359.512 62.1484 359.824 61.4375 359.824 60.4375C359.824 59.6797 359.59 59.1211 359.121 58.7617C358.652 58.4023 357.988 58.0781 357.129 57.7891L355.207 57.1328C354.59 56.9219 354.027 56.6875 353.52 56.4297C353.02 56.1719 352.617 55.8281 352.312 55.3984C352.016 54.9688 351.867 54.3945 351.867 53.6758C351.867 52.8945 352.051 52.2383 352.418 51.707C352.785 51.1758 353.273 50.7734 353.883 50.5C354.5 50.2266 355.176 50.0898 355.91 50.0898C356.473 50.0898 357.078 50.1602 357.727 50.3008C358.375 50.4336 358.902 50.7227 359.309 51.168C359.309 50.4492 359.512 50.0898 359.918 50.0898C360.074 50.0898 360.191 50.1523 360.27 50.2773C360.348 50.3945 360.387 50.6055 360.387 50.9102V53.875C360.387 54.0859 360.332 54.2422 360.223 54.3438C360.121 54.4453 359.996 54.4961 359.848 54.4961C359.715 54.4961 359.594 54.4492 359.484 54.3555C359.375 54.2617 359.32 54.125 359.32 53.9453V52.8789C359.273 52.4727 359.086 52.1406 358.758 51.8828C358.43 51.6172 358.031 51.4219 357.562 51.2969C357.102 51.1641 356.641 51.0977 356.18 51.0977C355.18 51.0977 354.398 51.3242 353.836 51.7773C353.273 52.2305 352.992 52.8438 352.992 53.6172C352.992 54.1562 353.09 54.5703 353.285 54.8594C353.488 55.1484 353.793 55.3867 354.199 55.5742C354.613 55.7539 355.137 55.9531 355.77 56.1719L357.363 56.7227C358.504 57.1133 359.387 57.5742 360.012 58.1055C360.637 58.6289 360.949 59.3906 360.949 60.3906C360.949 61.3125 360.746 62.0547 360.34 62.6172C359.934 63.1719 359.402 63.5742 358.746 63.8242C358.09 64.0742 357.387 64.1992 356.637 64.1992C356.012 64.1992 355.328 64.0742 354.586 63.8242C353.844 63.5742 353.254 63.2227 352.816 62.7695C352.816 63.7227 352.633 64.1992 352.266 64.1992ZM366.711 64C366.516 64 366.363 63.9453 366.254 63.8359C366.152 63.7266 366.102 63.6094 366.102 63.4844C366.102 63.3594 366.148 63.2461 366.242 63.1445C366.344 63.043 366.492 62.9922 366.688 62.9922H369.523V51.2852H365.445L365.305 54.4609C365.297 54.6406 365.242 54.7734 365.141 54.8594C365.047 54.9453 364.941 54.9883 364.824 54.9883C364.684 54.9883 364.551 54.9336 364.426 54.8242C364.309 54.7148 364.25 54.5586 364.25 54.3555V50.9102C364.25 50.4883 364.414 50.2773 364.742 50.2773H375.477C375.789 50.2773 375.945 50.4883 375.945 50.9102V54.3555C375.945 54.5586 375.887 54.7109 375.77 54.8125C375.66 54.9141 375.539 54.9648 375.406 54.9648C375.281 54.9648 375.168 54.9219 375.066 54.8359C374.965 54.75 374.906 54.625 374.891 54.4609L374.773 51.2852H370.648V62.9922H373.484C373.672 62.9922 373.812 63.043 373.906 63.1445C374.008 63.2461 374.059 63.3594 374.059 63.4844C374.059 63.6094 374.008 63.7266 373.906 63.8359C373.805 63.9453 373.656 64 373.461 64H366.711ZM378.18 64C377.984 64 377.836 63.9492 377.734 63.8477C377.641 63.7383 377.594 63.6211 377.594 63.4961C377.594 63.3711 377.641 63.2578 377.734 63.1562C377.828 63.0469 377.973 62.9922 378.168 62.9922H379.164L383.676 51.2852H381.133C380.938 51.2852 380.789 51.2344 380.688 51.1328C380.594 51.0234 380.547 50.9062 380.547 50.7812C380.547 50.6562 380.594 50.543 380.688 50.4414C380.781 50.332 380.926 50.2773 381.121 50.2773H384.672C384.945 50.2773 385.152 50.3555 385.293 50.5117C385.441 50.6602 385.551 50.8359 385.621 51.0391L389.863 62.9922H390.789C390.977 62.9922 391.117 63.043 391.211 63.1445C391.305 63.2461 391.352 63.3594 391.352 63.4844C391.352 63.6094 391.301 63.7266 391.199 63.8359C391.105 63.9453 390.961 64 390.766 64H386.477C386.281 64 386.133 63.9453 386.031 63.8359C385.93 63.7266 385.879 63.6094 385.879 63.4844C385.879 63.3594 385.926 63.2461 386.02 63.1445C386.113 63.043 386.258 62.9922 386.453 62.9922H388.633L387.379 59.4062H381.719L380.406 62.9922H382.27C382.465 62.9922 382.609 63.0469 382.703 63.1562C382.805 63.2578 382.855 63.3711 382.855 63.4961C382.855 63.6211 382.805 63.7383 382.703 63.8477C382.609 63.9492 382.461 64 382.258 64H378.18ZM382.105 58.4336H387.027L384.695 51.4375L382.105 58.4336ZM403.008 64.1875C402.727 64.1875 402.508 64.0391 402.352 63.7422L395.871 51.2969V62.9922H397.488C397.684 62.9922 397.828 63.0469 397.922 63.1562C398.016 63.2578 398.062 63.3711 398.062 63.4961C398.062 63.6211 398.012 63.7383 397.91 63.8477C397.816 63.9492 397.672 64 397.477 64H393.281C393.086 64 392.938 63.9492 392.836 63.8477C392.742 63.7383 392.695 63.6211 392.695 63.4961C392.695 63.3711 392.742 63.2578 392.836 63.1562C392.93 63.0469 393.074 62.9922 393.27 62.9922H394.746V51.2852H392.918C392.723 51.2852 392.578 51.2344 392.484 51.1328C392.391 51.0312 392.344 50.918 392.344 50.793C392.344 50.6602 392.391 50.543 392.484 50.4414C392.586 50.332 392.734 50.2773 392.93 50.2773H396.293C396.512 50.2773 396.668 50.3711 396.762 50.5586L402.457 61.7266V51.2852H400.711C400.516 51.2852 400.371 51.2344 400.277 51.1328C400.184 51.0312 400.137 50.918 400.137 50.793C400.137 50.6602 400.188 50.543 400.289 50.4414C400.391 50.332 400.539 50.2773 400.734 50.2773H404.684C404.879 50.2773 405.023 50.332 405.117 50.4414C405.219 50.543 405.27 50.6602 405.27 50.793C405.27 50.918 405.223 51.0312 405.129 51.1328C405.035 51.2344 404.895 51.2852 404.707 51.2852H403.582V63.4492C403.582 63.6992 403.523 63.8828 403.406 64C403.297 64.125 403.164 64.1875 403.008 64.1875ZM413.527 64.1992C412.324 64.1992 411.246 63.9023 410.293 63.3086C409.348 62.707 408.602 61.8594 408.055 60.7656C407.508 59.6719 407.234 58.3789 407.234 56.8867C407.234 55.5273 407.508 54.3398 408.055 53.3242C408.602 52.3008 409.348 51.5078 410.293 50.9453C411.238 50.375 412.312 50.0898 413.516 50.0898C414.445 50.0898 415.289 50.2812 416.047 50.6641C416.812 51.0469 417.352 51.5273 417.664 52.1055V50.8633C417.664 50.668 417.723 50.5234 417.84 50.4297C417.965 50.3281 418.098 50.2773 418.238 50.2773C418.387 50.2773 418.52 50.3281 418.637 50.4297C418.754 50.5234 418.812 50.6719 418.812 50.875V54.3086C418.812 54.4961 418.754 54.6367 418.637 54.7305C418.527 54.8164 418.406 54.8594 418.273 54.8594C417.961 54.8594 417.773 54.6758 417.711 54.3086C417.531 53.3477 417.055 52.5742 416.281 51.9883C415.508 51.3945 414.598 51.0977 413.551 51.0977C412.48 51.0977 411.555 51.3516 410.773 51.8594C410 52.3672 409.402 53.0625 408.98 53.9453C408.566 54.8281 408.359 55.8359 408.359 56.9688C408.359 58.2812 408.598 59.4023 409.074 60.332C409.559 61.2617 410.195 61.9727 410.984 62.4648C411.773 62.9492 412.625 63.1914 413.539 63.1914C414.672 63.1914 415.617 62.8867 416.375 62.2773C417.133 61.6602 417.668 60.832 417.98 59.793C418.059 59.5742 418.215 59.4648 418.449 59.4648C418.605 59.4648 418.754 59.5156 418.895 59.6172C419.043 59.7188 419.117 59.8398 419.117 59.9805C419.117 60.0195 419.113 60.0469 419.105 60.0625C418.965 60.7188 418.668 61.3633 418.215 61.9961C417.77 62.6289 417.16 63.1562 416.387 63.5781C415.613 63.9922 414.66 64.1992 413.527 64.1992ZM421.785 64C421.59 64 421.441 63.9492 421.34 63.8477C421.238 63.7383 421.188 63.6211 421.188 63.4961C421.188 63.3711 421.234 63.2578 421.328 63.1562C421.43 63.0547 421.578 63.0039 421.773 63.0039H423.766V51.2852H422.184C421.996 51.2852 421.855 51.2344 421.762 51.1328C421.668 51.0312 421.621 50.918 421.621 50.793C421.621 50.6602 421.668 50.543 421.762 50.4414C421.863 50.332 422.012 50.2773 422.207 50.2773H432.496C432.934 50.2773 433.152 50.4883 433.152 50.9102V54.0742C433.152 54.2461 433.102 54.375 433 54.4609C432.906 54.5469 432.801 54.5898 432.684 54.5898C432.566 54.5898 432.457 54.5547 432.355 54.4844C432.254 54.4062 432.199 54.293 432.191 54.1445L432.027 51.2852H424.891V56.3359H428.711L428.863 54.7773C428.879 54.5977 428.934 54.4648 429.027 54.3789C429.129 54.293 429.23 54.25 429.332 54.25C429.441 54.25 429.543 54.3008 429.637 54.4023C429.73 54.4961 429.777 54.6523 429.777 54.8711V58.8789C429.777 59.082 429.73 59.2344 429.637 59.3359C429.543 59.4297 429.441 59.4766 429.332 59.4766C429.223 59.4766 429.121 59.4336 429.027 59.3477C428.934 59.2617 428.879 59.1367 428.863 58.9727L428.711 57.2383H424.891V63.0039H432.098L432.285 60.0625C432.293 59.9219 432.348 59.8125 432.449 59.7344C432.559 59.6484 432.676 59.6055 432.801 59.6055C432.926 59.6055 433.039 59.6562 433.141 59.7578C433.242 59.8516 433.293 60.0039 433.293 60.2148V63.3789C433.293 63.793 433.074 64 432.637 64H421.785Z" fill="#C3C3C3"/>
<path d="M181.4 89.216C179.9 89.216 178.802 88.646 178.106 87.506C177.422 86.366 177.08 84.77 177.08 82.718C177.08 80.666 177.422 79.07 178.106 77.93C178.802 76.79 179.9 76.22 181.4 76.22C182.9 76.22 183.992 76.79 184.676 77.93C185.372 79.07 185.72 80.666 185.72 82.718C185.72 84.77 185.372 86.366 184.676 87.506C183.992 88.646 182.9 89.216 181.4 89.216ZM181.4 87.902C182.06 87.902 182.588 87.728 182.984 87.38C183.38 87.02 183.668 86.528 183.848 85.904C184.04 85.268 184.136 84.548 184.136 83.744V81.692C184.136 80.876 184.04 80.156 183.848 79.532C183.668 78.908 183.38 78.422 182.984 78.074C182.588 77.714 182.06 77.534 181.4 77.534C180.752 77.534 180.224 77.714 179.816 78.074C179.42 78.422 179.126 78.908 178.934 79.532C178.754 80.156 178.664 80.876 178.664 81.692V83.744C178.664 84.548 178.754 85.268 178.934 85.904C179.126 86.528 179.42 87.02 179.816 87.38C180.224 87.728 180.752 87.902 181.4 87.902ZM192.077 89V79.712H193.517V81.224H193.589C193.793 80.744 194.081 80.336 194.453 80C194.825 79.664 195.371 79.496 196.091 79.496C196.703 79.496 197.267 79.646 197.783 79.946C198.299 80.234 198.683 80.714 198.935 81.386H198.971C199.139 80.882 199.451 80.444 199.907 80.072C200.375 79.688 201.005 79.496 201.797 79.496C202.745 79.496 203.483 79.808 204.011 80.432C204.551 81.044 204.821 81.914 204.821 83.042V89H203.381V83.294C203.381 82.478 203.219 81.86 202.895 81.44C202.571 81.008 202.055 80.792 201.347 80.792C200.975 80.792 200.621 80.858 200.285 80.99C199.949 81.11 199.679 81.302 199.475 81.566C199.271 81.83 199.169 82.16 199.169 82.556V89H197.729V83.294C197.729 82.466 197.567 81.842 197.243 81.422C196.919 81.002 196.415 80.792 195.731 80.792C195.359 80.792 194.999 80.858 194.651 80.99C194.315 81.11 194.039 81.302 193.823 81.566C193.619 81.83 193.517 82.16 193.517 82.556V89H192.077ZM211.034 89.216C210.194 89.216 209.462 89.018 208.838 88.622C208.214 88.214 207.728 87.65 207.38 86.93C207.032 86.198 206.858 85.34 206.858 84.356C206.858 83.372 207.032 82.52 207.38 81.8C207.728 81.068 208.214 80.504 208.838 80.108C209.462 79.7 210.194 79.496 211.034 79.496C211.862 79.496 212.576 79.694 213.176 80.09C213.776 80.474 214.238 81.008 214.562 81.692C214.886 82.376 215.048 83.156 215.048 84.032V84.716H208.37V85.148C208.37 85.952 208.61 86.624 209.09 87.164C209.582 87.692 210.26 87.956 211.124 87.956C211.712 87.956 212.222 87.818 212.654 87.542C213.098 87.266 213.44 86.87 213.68 86.354L214.706 87.092C214.406 87.716 213.938 88.226 213.302 88.622C212.666 89.018 211.91 89.216 211.034 89.216ZM208.37 83.636H213.5V83.438C213.5 82.886 213.398 82.406 213.194 81.998C212.99 81.59 212.702 81.272 212.33 81.044C211.958 80.816 211.526 80.702 211.034 80.702C210.518 80.702 210.056 80.822 209.648 81.062C209.252 81.302 208.94 81.638 208.712 82.07C208.484 82.49 208.37 82.97 208.37 83.51V83.636ZM219.223 89C218.731 89 218.353 88.856 218.089 88.568C217.825 88.28 217.693 87.914 217.693 87.47V80.972H216.163V79.712H217.027C217.339 79.712 217.549 79.652 217.657 79.532C217.777 79.4 217.837 79.178 217.837 78.866V77.138H219.133V79.712H221.167V80.972H219.133V87.74H221.023V89H219.223ZM226.653 89.216C225.813 89.216 225.081 89.018 224.457 88.622C223.833 88.214 223.347 87.65 222.999 86.93C222.651 86.198 222.477 85.34 222.477 84.356C222.477 83.372 222.651 82.52 222.999 81.8C223.347 81.068 223.833 80.504 224.457 80.108C225.081 79.7 225.813 79.496 226.653 79.496C227.481 79.496 228.195 79.694 228.795 80.09C229.395 80.474 229.857 81.008 230.181 81.692C230.505 82.376 230.667 83.156 230.667 84.032V84.716H223.989V85.148C223.989 85.952 224.229 86.624 224.709 87.164C225.201 87.692 225.879 87.956 226.743 87.956C227.331 87.956 227.841 87.818 228.273 87.542C228.717 87.266 229.059 86.87 229.299 86.354L230.325 87.092C230.025 87.716 229.557 88.226 228.921 88.622C228.285 89.018 227.529 89.216 226.653 89.216ZM223.989 83.636H229.119V83.438C229.119 82.886 229.017 82.406 228.813 81.998C228.609 81.59 228.321 81.272 227.949 81.044C227.577 80.816 227.145 80.702 226.653 80.702C226.137 80.702 225.675 80.822 225.267 81.062C224.871 81.302 224.559 81.638 224.331 82.07C224.103 82.49 223.989 82.97 223.989 83.51V83.636ZM232.79 89V79.712H234.23V81.422H234.32C234.428 81.122 234.596 80.846 234.824 80.594C235.052 80.33 235.346 80.12 235.706 79.964C236.066 79.796 236.498 79.712 237.002 79.712H237.56V81.152H236.714C236.198 81.152 235.754 81.224 235.382 81.368C235.01 81.5 234.722 81.68 234.518 81.908C234.326 82.136 234.23 82.4 234.23 82.7V89H232.79ZM241.939 89.216C241.087 89.216 240.367 89.054 239.779 88.73C239.191 88.394 238.687 87.95 238.267 87.398L239.293 86.57C239.653 87.014 240.055 87.362 240.499 87.614C240.943 87.866 241.459 87.992 242.047 87.992C242.659 87.992 243.133 87.86 243.469 87.596C243.817 87.332 243.991 86.96 243.991 86.48C243.991 86.12 243.871 85.808 243.631 85.544C243.403 85.28 242.983 85.106 242.371 85.022L241.633 84.914C241.069 84.83 240.559 84.692 240.103 84.5C239.647 84.296 239.287 84.014 239.023 83.654C238.771 83.282 238.645 82.808 238.645 82.232C238.645 81.308 238.957 80.624 239.581 80.18C240.217 79.724 241.009 79.496 241.957 79.496C242.461 79.496 242.905 79.556 243.289 79.676C243.685 79.796 244.039 79.97 244.351 80.198C244.663 80.414 244.945 80.678 245.197 80.99L244.243 81.854C244.039 81.566 243.739 81.308 243.343 81.08C242.947 80.84 242.449 80.72 241.849 80.72C241.261 80.72 240.811 80.852 240.499 81.116C240.187 81.368 240.031 81.716 240.031 82.16C240.031 82.604 240.181 82.934 240.481 83.15C240.793 83.354 241.237 83.504 241.813 83.6L242.533 83.708C243.565 83.864 244.297 84.164 244.729 84.608C245.161 85.04 245.377 85.61 245.377 86.318C245.377 86.918 245.239 87.434 244.963 87.866C244.687 88.298 244.291 88.634 243.775 88.874C243.259 89.102 242.647 89.216 241.939 89.216Z" fill="#F1F1F1"/>
<path d="M177.781 64C177.586 64 177.438 63.9492 177.336 63.8477C177.234 63.7383 177.184 63.6211 177.184 63.4961C177.184 63.3711 177.23 63.2578 177.324 63.1562C177.426 63.0469 177.574 62.9922 177.77 62.9922H179.68V51.2852H177.816C177.629 51.2852 177.488 51.2344 177.395 51.1328C177.301 51.0312 177.254 50.918 177.254 50.793C177.254 50.6602 177.301 50.543 177.395 50.4414C177.496 50.332 177.645 50.2773 177.84 50.2773H182.035C183.379 50.2773 184.547 50.5195 185.539 51.0039C186.539 51.4805 187.316 52.2188 187.871 53.2188C188.426 54.2188 188.703 55.5039 188.703 57.0742C188.703 59.5508 188.117 61.3242 186.945 62.3945C185.773 63.4648 184.129 64 182.012 64H177.781ZM180.805 62.9922H182.094C184.031 62.9922 185.43 62.4961 186.289 61.5039C187.148 60.5117 187.578 59.0352 187.578 57.0742C187.578 55.2227 187.121 53.7969 186.207 52.7969C185.293 51.7891 183.977 51.2852 182.258 51.2852H180.805V62.9922ZM193.914 64C193.719 64 193.57 63.9492 193.469 63.8477C193.367 63.7383 193.316 63.6211 193.316 63.4961C193.316 63.3711 193.363 63.2578 193.457 63.1562C193.559 63.0469 193.707 62.9922 193.902 62.9922H197.477V51.2852H193.902C193.707 51.2852 193.559 51.2344 193.457 51.1328C193.363 51.0312 193.316 50.918 193.316 50.793C193.316 50.6602 193.367 50.543 193.469 50.4414C193.57 50.332 193.719 50.2773 193.914 50.2773H201.941C202.137 50.2773 202.281 50.332 202.375 50.4414C202.477 50.543 202.527 50.6602 202.527 50.793C202.527 50.918 202.48 51.0312 202.387 51.1328C202.293 51.2344 202.148 51.2852 201.953 51.2852H198.602V62.9922H201.953C202.148 62.9922 202.293 63.0469 202.387 63.1562C202.48 63.2578 202.527 63.3711 202.527 63.4961C202.527 63.6211 202.477 63.7383 202.375 63.8477C202.281 63.9492 202.137 64 201.941 64H193.914ZM208.266 64.1992C208.07 64.1992 207.926 64.1367 207.832 64.0117C207.746 63.8945 207.703 63.668 207.703 63.332V59.6523C207.703 59.4648 207.754 59.3281 207.855 59.2422C207.957 59.1484 208.078 59.1016 208.219 59.1016C208.359 59.1016 208.484 59.1484 208.594 59.2422C208.703 59.3359 208.758 59.4805 208.758 59.6758V61.0703C208.758 61.4062 208.949 61.7383 209.332 62.0664C209.715 62.3867 210.203 62.6562 210.797 62.875C211.398 63.0859 212.023 63.1914 212.672 63.1914C213.531 63.1914 214.27 62.9844 214.887 62.5703C215.512 62.1484 215.824 61.4375 215.824 60.4375C215.824 59.6797 215.59 59.1211 215.121 58.7617C214.652 58.4023 213.988 58.0781 213.129 57.7891L211.207 57.1328C210.59 56.9219 210.027 56.6875 209.52 56.4297C209.02 56.1719 208.617 55.8281 208.312 55.3984C208.016 54.9688 207.867 54.3945 207.867 53.6758C207.867 52.8945 208.051 52.2383 208.418 51.707C208.785 51.1758 209.273 50.7734 209.883 50.5C210.5 50.2266 211.176 50.0898 211.91 50.0898C212.473 50.0898 213.078 50.1602 213.727 50.3008C214.375 50.4336 214.902 50.7227 215.309 51.168C215.309 50.4492 215.512 50.0898 215.918 50.0898C216.074 50.0898 216.191 50.1523 216.27 50.2773C216.348 50.3945 216.387 50.6055 216.387 50.9102V53.875C216.387 54.0859 216.332 54.2422 216.223 54.3438C216.121 54.4453 215.996 54.4961 215.848 54.4961C215.715 54.4961 215.594 54.4492 215.484 54.3555C215.375 54.2617 215.32 54.125 215.32 53.9453V52.8789C215.273 52.4727 215.086 52.1406 214.758 51.8828C214.43 51.6172 214.031 51.4219 213.562 51.2969C213.102 51.1641 212.641 51.0977 212.18 51.0977C211.18 51.0977 210.398 51.3242 209.836 51.7773C209.273 52.2305 208.992 52.8438 208.992 53.6172C208.992 54.1562 209.09 54.5703 209.285 54.8594C209.488 55.1484 209.793 55.3867 210.199 55.5742C210.613 55.7539 211.137 55.9531 211.77 56.1719L213.363 56.7227C214.504 57.1133 215.387 57.5742 216.012 58.1055C216.637 58.6289 216.949 59.3906 216.949 60.3906C216.949 61.3125 216.746 62.0547 216.34 62.6172C215.934 63.1719 215.402 63.5742 214.746 63.8242C214.09 64.0742 213.387 64.1992 212.637 64.1992C212.012 64.1992 211.328 64.0742 210.586 63.8242C209.844 63.5742 209.254 63.2227 208.816 62.7695C208.816 63.7227 208.633 64.1992 208.266 64.1992ZM222.711 64C222.516 64 222.363 63.9453 222.254 63.8359C222.152 63.7266 222.102 63.6094 222.102 63.4844C222.102 63.3594 222.148 63.2461 222.242 63.1445C222.344 63.043 222.492 62.9922 222.688 62.9922H225.523V51.2852H221.445L221.305 54.4609C221.297 54.6406 221.242 54.7734 221.141 54.8594C221.047 54.9453 220.941 54.9883 220.824 54.9883C220.684 54.9883 220.551 54.9336 220.426 54.8242C220.309 54.7148 220.25 54.5586 220.25 54.3555V50.9102C220.25 50.4883 220.414 50.2773 220.742 50.2773H231.477C231.789 50.2773 231.945 50.4883 231.945 50.9102V54.3555C231.945 54.5586 231.887 54.7109 231.77 54.8125C231.66 54.9141 231.539 54.9648 231.406 54.9648C231.281 54.9648 231.168 54.9219 231.066 54.8359C230.965 54.75 230.906 54.625 230.891 54.4609L230.773 51.2852H226.648V62.9922H229.484C229.672 62.9922 229.812 63.043 229.906 63.1445C230.008 63.2461 230.059 63.3594 230.059 63.4844C230.059 63.6094 230.008 63.7266 229.906 63.8359C229.805 63.9453 229.656 64 229.461 64H222.711ZM234.18 64C233.984 64 233.836 63.9492 233.734 63.8477C233.641 63.7383 233.594 63.6211 233.594 63.4961C233.594 63.3711 233.641 63.2578 233.734 63.1562C233.828 63.0469 233.973 62.9922 234.168 62.9922H235.164L239.676 51.2852H237.133C236.938 51.2852 236.789 51.2344 236.688 51.1328C236.594 51.0234 236.547 50.9062 236.547 50.7812C236.547 50.6562 236.594 50.543 236.688 50.4414C236.781 50.332 236.926 50.2773 237.121 50.2773H240.672C240.945 50.2773 241.152 50.3555 241.293 50.5117C241.441 50.6602 241.551 50.8359 241.621 51.0391L245.863 62.9922H246.789C246.977 62.9922 247.117 63.043 247.211 63.1445C247.305 63.2461 247.352 63.3594 247.352 63.4844C247.352 63.6094 247.301 63.7266 247.199 63.8359C247.105 63.9453 246.961 64 246.766 64H242.477C242.281 64 242.133 63.9453 242.031 63.8359C241.93 63.7266 241.879 63.6094 241.879 63.4844C241.879 63.3594 241.926 63.2461 242.02 63.1445C242.113 63.043 242.258 62.9922 242.453 62.9922H244.633L243.379 59.4062H237.719L236.406 62.9922H238.27C238.465 62.9922 238.609 63.0469 238.703 63.1562C238.805 63.2578 238.855 63.3711 238.855 63.4961C238.855 63.6211 238.805 63.7383 238.703 63.8477C238.609 63.9492 238.461 64 238.258 64H234.18ZM238.105 58.4336H243.027L240.695 51.4375L238.105 58.4336ZM259.008 64.1875C258.727 64.1875 258.508 64.0391 258.352 63.7422L251.871 51.2969V62.9922H253.488C253.684 62.9922 253.828 63.0469 253.922 63.1562C254.016 63.2578 254.062 63.3711 254.062 63.4961C254.062 63.6211 254.012 63.7383 253.91 63.8477C253.816 63.9492 253.672 64 253.477 64H249.281C249.086 64 248.938 63.9492 248.836 63.8477C248.742 63.7383 248.695 63.6211 248.695 63.4961C248.695 63.3711 248.742 63.2578 248.836 63.1562C248.93 63.0469 249.074 62.9922 249.27 62.9922H250.746V51.2852H248.918C248.723 51.2852 248.578 51.2344 248.484 51.1328C248.391 51.0312 248.344 50.918 248.344 50.793C248.344 50.6602 248.391 50.543 248.484 50.4414C248.586 50.332 248.734 50.2773 248.93 50.2773H252.293C252.512 50.2773 252.668 50.3711 252.762 50.5586L258.457 61.7266V51.2852H256.711C256.516 51.2852 256.371 51.2344 256.277 51.1328C256.184 51.0312 256.137 50.918 256.137 50.793C256.137 50.6602 256.188 50.543 256.289 50.4414C256.391 50.332 256.539 50.2773 256.734 50.2773H260.684C260.879 50.2773 261.023 50.332 261.117 50.4414C261.219 50.543 261.27 50.6602 261.27 50.793C261.27 50.918 261.223 51.0312 261.129 51.1328C261.035 51.2344 260.895 51.2852 260.707 51.2852H259.582V63.4492C259.582 63.6992 259.523 63.8828 259.406 64C259.297 64.125 259.164 64.1875 259.008 64.1875ZM269.527 64.1992C268.324 64.1992 267.246 63.9023 266.293 63.3086C265.348 62.707 264.602 61.8594 264.055 60.7656C263.508 59.6719 263.234 58.3789 263.234 56.8867C263.234 55.5273 263.508 54.3398 264.055 53.3242C264.602 52.3008 265.348 51.5078 266.293 50.9453C267.238 50.375 268.312 50.0898 269.516 50.0898C270.445 50.0898 271.289 50.2812 272.047 50.6641C272.812 51.0469 273.352 51.5273 273.664 52.1055V50.8633C273.664 50.668 273.723 50.5234 273.84 50.4297C273.965 50.3281 274.098 50.2773 274.238 50.2773C274.387 50.2773 274.52 50.3281 274.637 50.4297C274.754 50.5234 274.812 50.6719 274.812 50.875V54.3086C274.812 54.4961 274.754 54.6367 274.637 54.7305C274.527 54.8164 274.406 54.8594 274.273 54.8594C273.961 54.8594 273.773 54.6758 273.711 54.3086C273.531 53.3477 273.055 52.5742 272.281 51.9883C271.508 51.3945 270.598 51.0977 269.551 51.0977C268.48 51.0977 267.555 51.3516 266.773 51.8594C266 52.3672 265.402 53.0625 264.98 53.9453C264.566 54.8281 264.359 55.8359 264.359 56.9688C264.359 58.2812 264.598 59.4023 265.074 60.332C265.559 61.2617 266.195 61.9727 266.984 62.4648C267.773 62.9492 268.625 63.1914 269.539 63.1914C270.672 63.1914 271.617 62.8867 272.375 62.2773C273.133 61.6602 273.668 60.832 273.98 59.793C274.059 59.5742 274.215 59.4648 274.449 59.4648C274.605 59.4648 274.754 59.5156 274.895 59.6172C275.043 59.7188 275.117 59.8398 275.117 59.9805C275.117 60.0195 275.113 60.0469 275.105 60.0625C274.965 60.7188 274.668 61.3633 274.215 61.9961C273.77 62.6289 273.16 63.1562 272.387 63.5781C271.613 63.9922 270.66 64.1992 269.527 64.1992ZM277.785 64C277.59 64 277.441 63.9492 277.34 63.8477C277.238 63.7383 277.188 63.6211 277.188 63.4961C277.188 63.3711 277.234 63.2578 277.328 63.1562C277.43 63.0547 277.578 63.0039 277.773 63.0039H279.766V51.2852H278.184C277.996 51.2852 277.855 51.2344 277.762 51.1328C277.668 51.0312 277.621 50.918 277.621 50.793C277.621 50.6602 277.668 50.543 277.762 50.4414C277.863 50.332 278.012 50.2773 278.207 50.2773H288.496C288.934 50.2773 289.152 50.4883 289.152 50.9102V54.0742C289.152 54.2461 289.102 54.375 289 54.4609C288.906 54.5469 288.801 54.5898 288.684 54.5898C288.566 54.5898 288.457 54.5547 288.355 54.4844C288.254 54.4062 288.199 54.293 288.191 54.1445L288.027 51.2852H280.891V56.3359H284.711L284.863 54.7773C284.879 54.5977 284.934 54.4648 285.027 54.3789C285.129 54.293 285.23 54.25 285.332 54.25C285.441 54.25 285.543 54.3008 285.637 54.4023C285.73 54.4961 285.777 54.6523 285.777 54.8711V58.8789C285.777 59.082 285.73 59.2344 285.637 59.3359C285.543 59.4297 285.441 59.4766 285.332 59.4766C285.223 59.4766 285.121 59.4336 285.027 59.3477C284.934 59.2617 284.879 59.1367 284.863 58.9727L284.711 57.2383H280.891V63.0039H288.098L288.285 60.0625C288.293 59.9219 288.348 59.8125 288.449 59.7344C288.559 59.6484 288.676 59.6055 288.801 59.6055C288.926 59.6055 289.039 59.6562 289.141 59.7578C289.242 59.8516 289.293 60.0039 289.293 60.2148V63.3789C289.293 63.793 289.074 64 288.637 64H277.785Z" fill="#C3C3C3"/>
<path d="M37.4 89.216C35.9 89.216 34.802 88.646 34.106 87.506C33.422 86.366 33.08 84.77 33.08 82.718C33.08 80.666 33.422 79.07 34.106 77.93C34.802 76.79 35.9 76.22 37.4 76.22C38.9 76.22 39.992 76.79 40.676 77.93C41.372 79.07 41.72 80.666 41.72 82.718C41.72 84.77 41.372 86.366 40.676 87.506C39.992 88.646 38.9 89.216 37.4 89.216ZM37.4 87.902C38.06 87.902 38.588 87.728 38.984 87.38C39.38 87.02 39.668 86.528 39.848 85.904C40.04 85.268 40.136 84.548 40.136 83.744V81.692C40.136 80.876 40.04 80.156 39.848 79.532C39.668 78.908 39.38 78.422 38.984 78.074C38.588 77.714 38.06 77.534 37.4 77.534C36.752 77.534 36.224 77.714 35.816 78.074C35.42 78.422 35.126 78.908 34.934 79.532C34.754 80.156 34.664 80.876 34.664 81.692V83.744C34.664 84.548 34.754 85.268 34.934 85.904C35.126 86.528 35.42 87.02 35.816 87.38C36.224 87.728 36.752 87.902 37.4 87.902ZM48.0769 89V79.712H49.5169V81.224H49.5889C49.7929 80.744 50.0809 80.336 50.4529 80C50.8249 79.664 51.3709 79.496 52.0909 79.496C52.7029 79.496 53.2669 79.646 53.7829 79.946C54.2989 80.234 54.6829 80.714 54.9349 81.386H54.9709C55.1389 80.882 55.4509 80.444 55.9069 80.072C56.3749 79.688 57.0049 79.496 57.7969 79.496C58.7449 79.496 59.4829 79.808 60.0109 80.432C60.5509 81.044 60.8209 81.914 60.8209 83.042V89H59.3809V83.294C59.3809 82.478 59.2189 81.86 58.8949 81.44C58.5709 81.008 58.0549 80.792 57.3469 80.792C56.9749 80.792 56.6209 80.858 56.2849 80.99C55.9489 81.11 55.6789 81.302 55.4749 81.566C55.2709 81.83 55.1689 82.16 55.1689 82.556V89H53.7289V83.294C53.7289 82.466 53.5669 81.842 53.2429 81.422C52.9189 81.002 52.4149 80.792 51.7309 80.792C51.3589 80.792 50.9989 80.858 50.6509 80.99C50.3149 81.11 50.0389 81.302 49.8229 81.566C49.6189 81.83 49.5169 82.16 49.5169 82.556V89H48.0769ZM67.0337 89.216C66.1937 89.216 65.4617 89.018 64.8377 88.622C64.2137 88.214 63.7277 87.65 63.3797 86.93C63.0317 86.198 62.8577 85.34 62.8577 84.356C62.8577 83.372 63.0317 82.52 63.3797 81.8C63.7277 81.068 64.2137 80.504 64.8377 80.108C65.4617 79.7 66.1937 79.496 67.0337 79.496C67.8617 79.496 68.5757 79.694 69.1757 80.09C69.7757 80.474 70.2377 81.008 70.5617 81.692C70.8857 82.376 71.0477 83.156 71.0477 84.032V84.716H64.3697V85.148C64.3697 85.952 64.6097 86.624 65.0897 87.164C65.5817 87.692 66.2597 87.956 67.1237 87.956C67.7117 87.956 68.2217 87.818 68.6537 87.542C69.0977 87.266 69.4397 86.87 69.6797 86.354L70.7057 87.092C70.4057 87.716 69.9377 88.226 69.3017 88.622C68.6657 89.018 67.9097 89.216 67.0337 89.216ZM64.3697 83.636H69.4997V83.438C69.4997 82.886 69.3977 82.406 69.1937 81.998C68.9897 81.59 68.7017 81.272 68.3297 81.044C67.9577 80.816 67.5257 80.702 67.0337 80.702C66.5177 80.702 66.0557 80.822 65.6477 81.062C65.2517 81.302 64.9397 81.638 64.7117 82.07C64.4837 82.49 64.3697 82.97 64.3697 83.51V83.636ZM75.2226 89C74.7306 89 74.3526 88.856 74.0886 88.568C73.8246 88.28 73.6926 87.914 73.6926 87.47V80.972H72.1626V79.712H73.0266C73.3386 79.712 73.5486 79.652 73.6566 79.532C73.7766 79.4 73.8366 79.178 73.8366 78.866V77.138H75.1326V79.712H77.1666V80.972H75.1326V87.74H77.0226V89H75.2226ZM82.6529 89.216C81.8129 89.216 81.0809 89.018 80.4569 88.622C79.8329 88.214 79.3469 87.65 78.9989 86.93C78.6509 86.198 78.4769 85.34 78.4769 84.356C78.4769 83.372 78.6509 82.52 78.9989 81.8C79.3469 81.068 79.8329 80.504 80.4569 80.108C81.0809 79.7 81.8129 79.496 82.6529 79.496C83.4809 79.496 84.1949 79.694 84.7949 80.09C85.3949 80.474 85.8569 81.008 86.1809 81.692C86.5049 82.376 86.6669 83.156 86.6669 84.032V84.716H79.9889V85.148C79.9889 85.952 80.2289 86.624 80.7089 87.164C81.2009 87.692 81.8789 87.956 82.7429 87.956C83.3309 87.956 83.8409 87.818 84.2729 87.542C84.7169 87.266 85.0589 86.87 85.2989 86.354L86.3249 87.092C86.0249 87.716 85.5569 88.226 84.9209 88.622C84.2849 89.018 83.5289 89.216 82.6529 89.216ZM79.9889 83.636H85.1189V83.438C85.1189 82.886 85.0169 82.406 84.8129 81.998C84.6089 81.59 84.3209 81.272 83.9489 81.044C83.5769 80.816 83.1449 80.702 82.6529 80.702C82.1369 80.702 81.6749 80.822 81.2669 81.062C80.8709 81.302 80.5589 81.638 80.3309 82.07C80.1029 82.49 79.9889 82.97 79.9889 83.51V83.636ZM88.7898 89V79.712H90.2298V81.422H90.3198C90.4278 81.122 90.5958 80.846 90.8238 80.594C91.0518 80.33 91.3458 80.12 91.7058 79.964C92.0658 79.796 92.4978 79.712 93.0018 79.712H93.5598V81.152H92.7138C92.1978 81.152 91.7538 81.224 91.3818 81.368C91.0098 81.5 90.7218 81.68 90.5178 81.908C90.3258 82.136 90.2298 82.4 90.2298 82.7V89H88.7898ZM97.9391 89.216C97.0871 89.216 96.3671 89.054 95.7791 88.73C95.1911 88.394 94.6871 87.95 94.2671 87.398L95.2931 86.57C95.6531 87.014 96.0551 87.362 96.4991 87.614C96.9431 87.866 97.4591 87.992 98.0471 87.992C98.6591 87.992 99.1331 87.86 99.4691 87.596C99.8171 87.332 99.9911 86.96 99.9911 86.48C99.9911 86.12 99.8711 85.808 99.6311 85.544C99.4031 85.28 98.9831 85.106 98.3711 85.022L97.6331 84.914C97.0691 84.83 96.5591 84.692 96.1031 84.5C95.6471 84.296 95.2871 84.014 95.0231 83.654C94.7711 83.282 94.6451 82.808 94.6451 82.232C94.6451 81.308 94.9571 80.624 95.5811 80.18C96.2171 79.724 97.0091 79.496 97.9571 79.496C98.4611 79.496 98.9051 79.556 99.2891 79.676C99.6851 79.796 100.039 79.97 100.351 80.198C100.663 80.414 100.945 80.678 101.197 80.99L100.243 81.854C100.039 81.566 99.7391 81.308 99.3431 81.08C98.9471 80.84 98.4491 80.72 97.8491 80.72C97.2611 80.72 96.8111 80.852 96.4991 81.116C96.1871 81.368 96.0311 81.716 96.0311 82.16C96.0311 82.604 96.1811 82.934 96.4811 83.15C96.7931 83.354 97.2371 83.504 97.8131 83.6L98.5331 83.708C99.5651 83.864 100.297 84.164 100.729 84.608C101.161 85.04 101.377 85.61 101.377 86.318C101.377 86.918 101.239 87.434 100.963 87.866C100.687 88.298 100.291 88.634 99.7751 88.874C99.2591 89.102 98.6471 89.216 97.9391 89.216Z" fill="#F1F1F1"/>
<path d="M33.7812 64C33.5859 64 33.4375 63.9492 33.3359 63.8477C33.2344 63.7383 33.1836 63.6211 33.1836 63.4961C33.1836 63.3711 33.2305 63.2578 33.3242 63.1562C33.4258 63.0469 33.5742 62.9922 33.7695 62.9922H35.6797V51.2852H33.8164C33.6289 51.2852 33.4883 51.2344 33.3945 51.1328C33.3008 51.0312 33.2539 50.918 33.2539 50.793C33.2539 50.6602 33.3008 50.543 33.3945 50.4414C33.4961 50.332 33.6445 50.2773 33.8398 50.2773H38.0352C39.3789 50.2773 40.5469 50.5195 41.5391 51.0039C42.5391 51.4805 43.3164 52.2188 43.8711 53.2188C44.4258 54.2188 44.7031 55.5039 44.7031 57.0742C44.7031 59.5508 44.1172 61.3242 42.9453 62.3945C41.7734 63.4648 40.1289 64 38.0117 64H33.7812ZM36.8047 62.9922H38.0938C40.0312 62.9922 41.4297 62.4961 42.2891 61.5039C43.1484 60.5117 43.5781 59.0352 43.5781 57.0742C43.5781 55.2227 43.1211 53.7969 42.207 52.7969C41.293 51.7891 39.9766 51.2852 38.2578 51.2852H36.8047V62.9922ZM49.9141 64C49.7188 64 49.5703 63.9492 49.4688 63.8477C49.3672 63.7383 49.3164 63.6211 49.3164 63.4961C49.3164 63.3711 49.3633 63.2578 49.457 63.1562C49.5586 63.0469 49.707 62.9922 49.9023 62.9922H53.4766V51.2852H49.9023C49.707 51.2852 49.5586 51.2344 49.457 51.1328C49.3633 51.0312 49.3164 50.918 49.3164 50.793C49.3164 50.6602 49.3672 50.543 49.4688 50.4414C49.5703 50.332 49.7188 50.2773 49.9141 50.2773H57.9414C58.1367 50.2773 58.2812 50.332 58.375 50.4414C58.4766 50.543 58.5273 50.6602 58.5273 50.793C58.5273 50.918 58.4805 51.0312 58.3867 51.1328C58.293 51.2344 58.1484 51.2852 57.9531 51.2852H54.6016V62.9922H57.9531C58.1484 62.9922 58.293 63.0469 58.3867 63.1562C58.4805 63.2578 58.5273 63.3711 58.5273 63.4961C58.5273 63.6211 58.4766 63.7383 58.375 63.8477C58.2812 63.9492 58.1367 64 57.9414 64H49.9141ZM64.2656 64.1992C64.0703 64.1992 63.9258 64.1367 63.832 64.0117C63.7461 63.8945 63.7031 63.668 63.7031 63.332V59.6523C63.7031 59.4648 63.7539 59.3281 63.8555 59.2422C63.957 59.1484 64.0781 59.1016 64.2188 59.1016C64.3594 59.1016 64.4844 59.1484 64.5938 59.2422C64.7031 59.3359 64.7578 59.4805 64.7578 59.6758V61.0703C64.7578 61.4062 64.9492 61.7383 65.332 62.0664C65.7148 62.3867 66.2031 62.6562 66.7969 62.875C67.3984 63.0859 68.0234 63.1914 68.6719 63.1914C69.5312 63.1914 70.2695 62.9844 70.8867 62.5703C71.5117 62.1484 71.8242 61.4375 71.8242 60.4375C71.8242 59.6797 71.5898 59.1211 71.1211 58.7617C70.6523 58.4023 69.9883 58.0781 69.1289 57.7891L67.207 57.1328C66.5898 56.9219 66.0273 56.6875 65.5195 56.4297C65.0195 56.1719 64.6172 55.8281 64.3125 55.3984C64.0156 54.9688 63.8672 54.3945 63.8672 53.6758C63.8672 52.8945 64.0508 52.2383 64.418 51.707C64.7852 51.1758 65.2734 50.7734 65.8828 50.5C66.5 50.2266 67.1758 50.0898 67.9102 50.0898C68.4727 50.0898 69.0781 50.1602 69.7266 50.3008C70.375 50.4336 70.9023 50.7227 71.3086 51.168C71.3086 50.4492 71.5117 50.0898 71.918 50.0898C72.0742 50.0898 72.1914 50.1523 72.2695 50.2773C72.3477 50.3945 72.3867 50.6055 72.3867 50.9102V53.875C72.3867 54.0859 72.332 54.2422 72.2227 54.3438C72.1211 54.4453 71.9961 54.4961 71.8477 54.4961C71.7148 54.4961 71.5938 54.4492 71.4844 54.3555C71.375 54.2617 71.3203 54.125 71.3203 53.9453V52.8789C71.2734 52.4727 71.0859 52.1406 70.7578 51.8828C70.4297 51.6172 70.0312 51.4219 69.5625 51.2969C69.1016 51.1641 68.6406 51.0977 68.1797 51.0977C67.1797 51.0977 66.3984 51.3242 65.8359 51.7773C65.2734 52.2305 64.9922 52.8438 64.9922 53.6172C64.9922 54.1562 65.0898 54.5703 65.2852 54.8594C65.4883 55.1484 65.793 55.3867 66.1992 55.5742C66.6133 55.7539 67.1367 55.9531 67.7695 56.1719L69.3633 56.7227C70.5039 57.1133 71.3867 57.5742 72.0117 58.1055C72.6367 58.6289 72.9492 59.3906 72.9492 60.3906C72.9492 61.3125 72.7461 62.0547 72.3398 62.6172C71.9336 63.1719 71.4023 63.5742 70.7461 63.8242C70.0898 64.0742 69.3867 64.1992 68.6367 64.1992C68.0117 64.1992 67.3281 64.0742 66.5859 63.8242C65.8438 63.5742 65.2539 63.2227 64.8164 62.7695C64.8164 63.7227 64.6328 64.1992 64.2656 64.1992ZM78.7109 64C78.5156 64 78.3633 63.9453 78.2539 63.8359C78.1523 63.7266 78.1016 63.6094 78.1016 63.4844C78.1016 63.3594 78.1484 63.2461 78.2422 63.1445C78.3438 63.043 78.4922 62.9922 78.6875 62.9922H81.5234V51.2852H77.4453L77.3047 54.4609C77.2969 54.6406 77.2422 54.7734 77.1406 54.8594C77.0469 54.9453 76.9414 54.9883 76.8242 54.9883C76.6836 54.9883 76.5508 54.9336 76.4258 54.8242C76.3086 54.7148 76.25 54.5586 76.25 54.3555V50.9102C76.25 50.4883 76.4141 50.2773 76.7422 50.2773H87.4766C87.7891 50.2773 87.9453 50.4883 87.9453 50.9102V54.3555C87.9453 54.5586 87.8867 54.7109 87.7695 54.8125C87.6602 54.9141 87.5391 54.9648 87.4062 54.9648C87.2812 54.9648 87.168 54.9219 87.0664 54.8359C86.9648 54.75 86.9062 54.625 86.8906 54.4609L86.7734 51.2852H82.6484V62.9922H85.4844C85.6719 62.9922 85.8125 63.043 85.9062 63.1445C86.0078 63.2461 86.0586 63.3594 86.0586 63.4844C86.0586 63.6094 86.0078 63.7266 85.9062 63.8359C85.8047 63.9453 85.6562 64 85.4609 64H78.7109ZM90.1797 64C89.9844 64 89.8359 63.9492 89.7344 63.8477C89.6406 63.7383 89.5938 63.6211 89.5938 63.4961C89.5938 63.3711 89.6406 63.2578 89.7344 63.1562C89.8281 63.0469 89.9727 62.9922 90.168 62.9922H91.1641L95.6758 51.2852H93.1328C92.9375 51.2852 92.7891 51.2344 92.6875 51.1328C92.5938 51.0234 92.5469 50.9062 92.5469 50.7812C92.5469 50.6562 92.5938 50.543 92.6875 50.4414C92.7812 50.332 92.9258 50.2773 93.1211 50.2773H96.6719C96.9453 50.2773 97.1523 50.3555 97.293 50.5117C97.4414 50.6602 97.5508 50.8359 97.6211 51.0391L101.863 62.9922H102.789C102.977 62.9922 103.117 63.043 103.211 63.1445C103.305 63.2461 103.352 63.3594 103.352 63.4844C103.352 63.6094 103.301 63.7266 103.199 63.8359C103.105 63.9453 102.961 64 102.766 64H98.4766C98.2812 64 98.1328 63.9453 98.0312 63.8359C97.9297 63.7266 97.8789 63.6094 97.8789 63.4844C97.8789 63.3594 97.9258 63.2461 98.0195 63.1445C98.1133 63.043 98.2578 62.9922 98.4531 62.9922H100.633L99.3789 59.4062H93.7188L92.4062 62.9922H94.2695C94.4648 62.9922 94.6094 63.0469 94.7031 63.1562C94.8047 63.2578 94.8555 63.3711 94.8555 63.4961C94.8555 63.6211 94.8047 63.7383 94.7031 63.8477C94.6094 63.9492 94.4609 64 94.2578 64H90.1797ZM94.1055 58.4336H99.0273L96.6953 51.4375L94.1055 58.4336ZM115.008 64.1875C114.727 64.1875 114.508 64.0391 114.352 63.7422L107.871 51.2969V62.9922H109.488C109.684 62.9922 109.828 63.0469 109.922 63.1562C110.016 63.2578 110.062 63.3711 110.062 63.4961C110.062 63.6211 110.012 63.7383 109.91 63.8477C109.816 63.9492 109.672 64 109.477 64H105.281C105.086 64 104.938 63.9492 104.836 63.8477C104.742 63.7383 104.695 63.6211 104.695 63.4961C104.695 63.3711 104.742 63.2578 104.836 63.1562C104.93 63.0469 105.074 62.9922 105.27 62.9922H106.746V51.2852H104.918C104.723 51.2852 104.578 51.2344 104.484 51.1328C104.391 51.0312 104.344 50.918 104.344 50.793C104.344 50.6602 104.391 50.543 104.484 50.4414C104.586 50.332 104.734 50.2773 104.93 50.2773H108.293C108.512 50.2773 108.668 50.3711 108.762 50.5586L114.457 61.7266V51.2852H112.711C112.516 51.2852 112.371 51.2344 112.277 51.1328C112.184 51.0312 112.137 50.918 112.137 50.793C112.137 50.6602 112.188 50.543 112.289 50.4414C112.391 50.332 112.539 50.2773 112.734 50.2773H116.684C116.879 50.2773 117.023 50.332 117.117 50.4414C117.219 50.543 117.27 50.6602 117.27 50.793C117.27 50.918 117.223 51.0312 117.129 51.1328C117.035 51.2344 116.895 51.2852 116.707 51.2852H115.582V63.4492C115.582 63.6992 115.523 63.8828 115.406 64C115.297 64.125 115.164 64.1875 115.008 64.1875ZM125.527 64.1992C124.324 64.1992 123.246 63.9023 122.293 63.3086C121.348 62.707 120.602 61.8594 120.055 60.7656C119.508 59.6719 119.234 58.3789 119.234 56.8867C119.234 55.5273 119.508 54.3398 120.055 53.3242C120.602 52.3008 121.348 51.5078 122.293 50.9453C123.238 50.375 124.312 50.0898 125.516 50.0898C126.445 50.0898 127.289 50.2812 128.047 50.6641C128.812 51.0469 129.352 51.5273 129.664 52.1055V50.8633C129.664 50.668 129.723 50.5234 129.84 50.4297C129.965 50.3281 130.098 50.2773 130.238 50.2773C130.387 50.2773 130.52 50.3281 130.637 50.4297C130.754 50.5234 130.812 50.6719 130.812 50.875V54.3086C130.812 54.4961 130.754 54.6367 130.637 54.7305C130.527 54.8164 130.406 54.8594 130.273 54.8594C129.961 54.8594 129.773 54.6758 129.711 54.3086C129.531 53.3477 129.055 52.5742 128.281 51.9883C127.508 51.3945 126.598 51.0977 125.551 51.0977C124.48 51.0977 123.555 51.3516 122.773 51.8594C122 52.3672 121.402 53.0625 120.98 53.9453C120.566 54.8281 120.359 55.8359 120.359 56.9688C120.359 58.2812 120.598 59.4023 121.074 60.332C121.559 61.2617 122.195 61.9727 122.984 62.4648C123.773 62.9492 124.625 63.1914 125.539 63.1914C126.672 63.1914 127.617 62.8867 128.375 62.2773C129.133 61.6602 129.668 60.832 129.98 59.793C130.059 59.5742 130.215 59.4648 130.449 59.4648C130.605 59.4648 130.754 59.5156 130.895 59.6172C131.043 59.7188 131.117 59.8398 131.117 59.9805C131.117 60.0195 131.113 60.0469 131.105 60.0625C130.965 60.7188 130.668 61.3633 130.215 61.9961C129.77 62.6289 129.16 63.1562 128.387 63.5781C127.613 63.9922 126.66 64.1992 125.527 64.1992ZM133.785 64C133.59 64 133.441 63.9492 133.34 63.8477C133.238 63.7383 133.188 63.6211 133.188 63.4961C133.188 63.3711 133.234 63.2578 133.328 63.1562C133.43 63.0547 133.578 63.0039 133.773 63.0039H135.766V51.2852H134.184C133.996 51.2852 133.855 51.2344 133.762 51.1328C133.668 51.0312 133.621 50.918 133.621 50.793C133.621 50.6602 133.668 50.543 133.762 50.4414C133.863 50.332 134.012 50.2773 134.207 50.2773H144.496C144.934 50.2773 145.152 50.4883 145.152 50.9102V54.0742C145.152 54.2461 145.102 54.375 145 54.4609C144.906 54.5469 144.801 54.5898 144.684 54.5898C144.566 54.5898 144.457 54.5547 144.355 54.4844C144.254 54.4062 144.199 54.293 144.191 54.1445L144.027 51.2852H136.891V56.3359H140.711L140.863 54.7773C140.879 54.5977 140.934 54.4648 141.027 54.3789C141.129 54.293 141.23 54.25 141.332 54.25C141.441 54.25 141.543 54.3008 141.637 54.4023C141.73 54.4961 141.777 54.6523 141.777 54.8711V58.8789C141.777 59.082 141.73 59.2344 141.637 59.3359C141.543 59.4297 141.441 59.4766 141.332 59.4766C141.223 59.4766 141.121 59.4336 141.027 59.3477C140.934 59.2617 140.879 59.1367 140.863 58.9727L140.711 57.2383H136.891V63.0039H144.098L144.285 60.0625C144.293 59.9219 144.348 59.8125 144.449 59.7344C144.559 59.6484 144.676 59.6055 144.801 59.6055C144.926 59.6055 145.039 59.6562 145.141 59.7578C145.242 59.8516 145.293 60.0039 145.293 60.2148V63.3789C145.293 63.793 145.074 64 144.637 64H133.785Z" fill="#C3C3C3"/>
</svg>
