<svg width="26" height="26" viewBox="0 0 26 26" fill="none" xmlns="http://www.w3.org/2000/svg">
<path d="M2.27652 17.875H15.5985C15.6841 17.8751 15.7688 17.8583 15.8479 17.8255C15.927 17.7928 15.9988 17.7448 16.0593 17.6843C16.1198 17.6238 16.1678 17.552 16.2005 17.4729C16.2333 17.3938 16.2501 17.3091 16.25 17.2235V15.2765C16.2501 15.1909 16.2333 15.1062 16.2005 15.0271C16.1678 14.948 16.1198 14.8762 16.0593 14.8157C15.9988 14.7552 15.927 14.7072 15.8479 14.6745C15.7688 14.6417 15.6841 14.6249 15.5985 14.625H2.27652C2.19095 14.6249 2.10619 14.6417 2.02712 14.6745C1.94804 14.7072 1.87619 14.7552 1.81568 14.8157C1.75517 14.8762 1.70718 14.948 1.67446 15.0271C1.64174 15.1062 1.62493 15.1909 1.625 15.2765V17.2235C1.62493 17.3091 1.64174 17.3938 1.67446 17.4729C1.70718 17.552 1.75517 17.6238 1.81568 17.6843C1.87619 17.7448 1.94804 17.7928 2.02712 17.8255C2.10619 17.8583 2.19095 17.8751 2.27652 17.875ZM2.27652 4.875H15.5985C15.6841 4.87507 15.7688 4.85826 15.8479 4.82554C15.927 4.79282 15.9988 4.74483 16.0593 4.68432C16.1198 4.62381 16.1678 4.55196 16.2005 4.47288C16.2333 4.39381 16.2501 4.30905 16.25 4.22348V2.27652C16.2501 2.19095 16.2333 2.10619 16.2005 2.02712C16.1678 1.94804 16.1198 1.87619 16.0593 1.81568C15.9988 1.75517 15.927 1.70718 15.8479 1.67446C15.7688 1.64174 15.6841 1.62493 15.5985 1.625H2.27652C2.19095 1.62493 2.10619 1.64174 2.02712 1.67446C1.94804 1.70718 1.87619 1.75517 1.81568 1.81568C1.75517 1.87619 1.70718 1.94804 1.67446 2.02712C1.64174 2.10619 1.62493 2.19095 1.625 2.27652V4.22348C1.62493 4.30905 1.64174 4.39381 1.67446 4.47288C1.70718 4.55196 1.75517 4.62381 1.81568 4.68432C1.87619 4.74483 1.94804 4.79282 2.02712 4.82554C2.10619 4.85826 2.19095 4.87507 2.27652 4.875ZM23.5625 8.125H2.4375C2.22201 8.125 2.01535 8.2106 1.86298 8.36298C1.7106 8.51535 1.625 8.72201 1.625 8.9375V10.5625C1.625 10.778 1.7106 10.9847 1.86298 11.137C2.01535 11.2894 2.22201 11.375 2.4375 11.375H23.5625C23.778 11.375 23.9847 11.2894 24.137 11.137C24.2894 10.9847 24.375 10.778 24.375 10.5625V8.9375C24.375 8.72201 24.2894 8.51535 24.137 8.36298C23.9847 8.2106 23.778 8.125 23.5625 8.125ZM23.5625 21.125H2.4375C2.22201 21.125 2.01535 21.2106 1.86298 21.363C1.7106 21.5153 1.625 21.722 1.625 21.9375V23.5625C1.625 23.778 1.7106 23.9847 1.86298 24.137C2.01535 24.2894 2.22201 24.375 2.4375 24.375H23.5625C23.778 24.375 23.9847 24.2894 24.137 24.137C24.2894 23.9847 24.375 23.778 24.375 23.5625V21.9375C24.375 21.722 24.2894 21.5153 24.137 21.363C23.9847 21.2106 23.778 21.125 23.5625 21.125Z" fill="#969696"/>
</svg>
